#!OML:ASF E:/inclinewalkrobotboard/Project1/Captureday1/Session1/subject1.ASF
:FULLY-SPECIFIED
:DEGREES
76
root 0 0 0 -0.3780931755915853 -2.28591338211823 -5.6030739529250875
lowerback 11.835952067713341 3.5752742353741023 1.9138655129161346
upperback 0.6735868432342373 4.94971126707558 -0.18113060403970138
thorax -5.813355353581032 2.3945436859143205 -1.9446759506179156
lowerneck -8.213410546788444 -5.007942048476579 -1.582982875950142
upperneck 14.566717316911935 -7.812040225068741 6.679490243342512
head 6.440915678047076 -3.3138296669331493 1.787374128141393
rclavicle 9.692923866402398E-16 7.635629623237245E-16
rhumerus 6.252634650220319 21.39418196092899 -42.70253008143122
rradius 126.22536964392111
rwrist -43.97111161313544
rhand -5.632023154422642 -50.8504347196237
rfingers 7.125020000000003
rthumb 20.236764384812737 -79.73419644352774
lclavicle 1.1812070378763086E-15 -3.472178162039598E-17
lhumerus -55.4849582938445 1.095544006597231 76.5854905575718
lradius 57.59641768474714
lwrist 3.5361872417870996
lhand -10.974664319774726 -26.190457033740763
lfingers 7.125020000000007
lthumb 15.063683560167542 3.294299766840325
rfemur 1.301944628243617 -0.3699931644694723 -2.2884215580239253
rtibia -3.9752090567243883
rfoot 0.5497814141091997 0.5488441923360354
rtoes -0.6043416258056438
lfemur -5.186578098008418 -4.6406202141647 -7.674316918768254
ltibia 23.625746578686446
lfoot -27.09949637103647 14.74383003205619
ltoes -66.43080558838612
77
root 0 0 0 0.1227766771708998 -1.683959000721973 -5.3843351554638605
lowerback 11.935515886062024 3.4442043371776956 1.6645456256064843
upperback 0.7349093512429045 4.746320360222833 -0.21636765998016627
thorax -5.815138164485484 2.2970675780202576 -1.8347396352981846
lowerneck -7.913644471742448 -4.9622136651763 -1.6056824941528731
upperneck 14.423696816311171 -7.754391839360347 6.758225957301841
head 6.34065839146809 -3.289138465559632 1.8392178063652023
rclavicle 1.2964837225904431E-15 1.2258926522757969E-15
rhumerus 6.541568225245008 20.774878468660443 -42.29501898419283
rradius 126.86515405786466
rwrist -43.61685078244614
rhand -5.843063031092226 -51.06039654072307
rfingers 7.125020000000004
rthumb 20.027155926282255 -79.97133077101557
lclavicle 1.7748104617277589E-15 6.43360375394751E-16
lhumerus -55.29661643402779 0.9094066985204513 76.67856218898785
lradius 57.749911645509144
lwrist 3.6533373481066795
lhand -11.011056864432364 -26.20519349324546
lfingers 7.125020000000007
lthumb 15.02831460249464 3.2780803686607634
rfemur 1.4191966256367765 -0.4736389494454305 -2.7605256203627118
rtibia -4.514430802774093
rfoot 0.7725311815626466 0.6554059744012206
rtoes -0.6759421599861601
lfemur -1.5586156073671358 -6.745078506264118 -8.652125587664472
ltibia 21.843878002383804
lfoot -28.970802851077586 15.881239696091832
ltoes -64.67488325945419
78
root 0 0 0 0.7055350181587019 -0.7915118483815731 -4.953826989757059
lowerback 12.06216802836578 3.1074938934631087 1.1089651095074593
upperback 0.8175631246879952 4.241964470725312 -0.21761360004510122
thorax -5.821211814113867 2.0562564678942907 -1.4890239837553763
lowerneck -7.377592164164503 -4.870980948621471 -1.5600598477445315
upperneck 12.651321006988901 -7.567028129658551 6.734868306795294
head 5.630601172983951 -3.235067502320983 1.8795274073984771
rclavicle 1.995971077183374E-15 1.2499515598653652E-15
rhumerus 6.211950446934029 19.777968712220243 -42.16352393079998
rradius 126.26223100209029
rwrist -43.67610756447739
rhand -5.865564012388303 -51.40191873663269
rfingers 7.125020000000004
rthumb 19.999394292873177 -80.31847095790465
lclavicle 2.376966545034963E-15 8.418736386582807E-16
lhumerus -55.08989916448004 0.7738442951809614 76.7965106386279
lradius 57.79352356991162
lwrist 3.727500170607109
lhand -11.055278735107693 -26.16423715156728
lfingers 7.125020000000007
lthumb 14.985715927549306 3.320141686560902
rfemur 1.5637408449727355 -0.5831779641806376 -3.2336528375028823
rtibia -5.030105321572808
rfoot 1.0164145784052971 0.7760971340468035
rtoes -0.7248734249887769
lfemur 0.46096718207931087 -7.996924197083296 -9.527707255561507
ltibia 20.97167370001359
lfoot -29.478258619760936 16.121478420899887
ltoes -62.035814764134344
79
root 0 0 0 1.2229080003265933 0.3994805597774431 -4.1048898217059335
lowerback 13.184785442389492 2.3755685355347325 -0.10562820253282379
upperback 1.23284014339221 3.144273021397915 -0.20434502918999375
thorax -6.0650314742818665 1.5337112131840578 -0.7001669210487754
lowerneck -6.008250054234154 -4.697455134499786 -1.1195291406786372
upperneck 5.947884828078479 -7.079558205128313 6.351867402107497
head 3.1140905852650818 -3.1305638189449914 1.8254048311853948
rclavicle 3.204798178298843E-15 8.857901053904731E-16
rhumerus 5.359002470691927 18.145262789029715 -42.14969851348426
rradius 124.29411669663452
rwrist -44.18421789287198
rhand -5.608731833219832 -52.108323651928146
rfingers 7.125020000000003
rthumb 20.241455520239644 -81.00110739118941
lclavicle 3.253877513444226E-15 6.599156723864919E-16
lhumerus -54.870097012402724 0.6706670098358231 76.93651079986543
lradius 57.78447901988684
lwrist 3.756057832199989
lhand -11.090103243985734 -26.155742703203547
lfingers 7.125020000000008
lthumb 14.953231628397248 3.327748974992243
rfemur 1.6818465485398528 -0.6822358411599825 -3.624275984856366
rtibia -5.397418985005999
rfoot 1.2470159887785002 0.8852444056511728
rtoes -0.740229335124374
lfemur 1.3722622222458272 -8.41637133508526 -10.15337158889809
ltibia 20.800034394268543
lfoot -29.28140915570622 15.816294985911936
ltoes -59.713010702151486
